HIERARCHY
ROOT root
{
	OFFSET 0.000000 0.000000 0.000000
	CHANNELS 6 Xposition Yposition Zposition Zrotation Yrotation Xrotation
	JOINT lhip
	{
		OFFSET 0.058581 -0.082280 -0.017664
		CHANNELS 3 Zrotation Yrotation Xrotation
		JOINT lknee
		{
			OFFSET 0.043451 -0.386469 0.008037
			CHANNELS 3 Zrotation Yrotation Xrotation
			JOINT lankle
			{
				OFFSET -0.014790 -0.426874 -0.037428
				CHANNELS 3 Zrotation Yrotation Xrotation
				JOINT ltoe
				{
					OFFSET 0.041054 -0.060286 0.122042
					CHANNELS 3 Zrotation Yrotation Xrotation
					End Site
					{
						OFFSET 0.000000 0.000000 0.000000
					}
				}
			}
		}
	}
	JOINT rhip
	{
		OFFSET -0.060310 -0.090513 -0.013543
		CHANNELS 3 Zrotation Yrotation Xrotation
		JOINT rknee
		{
			OFFSET -0.043257 -0.383688 -0.004843
			CHANNELS 3 Zrotation Yrotation Xrotation
			JOINT rankle
			{
				OFFSET 0.019056 -0.420046 -0.034562
				CHANNELS 3 Zrotation Yrotation Xrotation
				JOINT rtoe
				{
					OFFSET -0.034840 -0.062106 0.130323
					CHANNELS 3 Zrotation Yrotation Xrotation
					End Site
					{
						OFFSET 0.000000 0.000000 0.000000
					}
				}
			}
		}
	}
	JOINT lowerback
	{
		OFFSET 0.004439 0.124404 -0.038385
		CHANNELS 3 Zrotation Yrotation Xrotation
		JOINT upperback
		{
			OFFSET 0.004488 0.137956 0.026820
			CHANNELS 3 Zrotation Yrotation Xrotation
			JOINT chest
			{
				OFFSET -0.002265 0.056032 0.002855
				CHANNELS 3 Zrotation Yrotation Xrotation
				JOINT lowerneck
				{
					OFFSET -0.013390 0.211636 -0.033468
					CHANNELS 3 Zrotation Yrotation Xrotation
					JOINT upperneck
					{
						OFFSET 0.010113 0.088937 0.050410
						CHANNELS 3 Zrotation Yrotation Xrotation
						End Site
						{
							OFFSET 0.000000 0.000000 0.000000
						}
					}
				}
				JOINT lclavicle
				{
					OFFSET 0.071702 0.114000 -0.018898
					CHANNELS 3 Zrotation Yrotation Xrotation
					JOINT lshoulder
					{
						OFFSET 0.122921 0.045205 -0.019046
						CHANNELS 3 Zrotation Yrotation Xrotation
						JOINT lelbow
						{
							OFFSET 0.255332 -0.015649 -0.022946
							CHANNELS 3 Zrotation Yrotation Xrotation
							JOINT lwrist
							{
								OFFSET 0.265709 0.012698 -0.007375
								CHANNELS 3 Zrotation Yrotation Xrotation
								End Site
								{
									OFFSET 0.000000 0.000000 0.000000
								}
							}
						}
					}
				}
				JOINT rclavicle
				{
					OFFSET -0.082954 0.112472 -0.023707
					CHANNELS 3 Zrotation Yrotation Xrotation
					JOINT rshoulder
					{
						OFFSET -0.113228 0.046853 -0.008472
						CHANNELS 3 Zrotation Yrotation Xrotation
						JOINT relbow
						{
							OFFSET -0.260127 -0.014369 -0.031269
							CHANNELS 3 Zrotation Yrotation Xrotation
							JOINT rwrist
							{
								OFFSET -0.269108 0.006794 -0.006027
								CHANNELS 3 Zrotation Yrotation Xrotation
								End Site
								{
									OFFSET 0.000000 0.000000 0.000000
								}
							}
						}
					}
				}
			}
		}
	}
}
MOTION
Frames: 10
Frame Time: 0.033333
-1.200751 0.965262 0.957992 55.578640 -4.064253 86.833784 -0.877856 -4.274658 -20.382792 -4.172194 0.253865 20.095328 3.104298 11.607715 -6.353794 0.000000 -0.000000 0.000000 -0.750266 -0.067960 6.837314 2.306189 7.631839 42.628260 9.126415 -2.101928 -4.334868 0.000000 -0.000000 0.000000 -0.234783 4.803403 18.702605 1.030058 -3.159433 -0.379161 0.356371 -0.910842 3.771297 -4.752993 16.105563 -4.418836 -6.473728 16.952757 7.619240 -21.350773 -1.985904 -0.058084 -57.067560 -4.960366 10.932586 2.062561 -23.095648 14.049738 6.132411 -7.349464 -4.171228 21.276676 3.653430 -1.730948 52.021564 5.922864 16.090705 -10.356379 30.686220 1.461091 3.586888 7.572936 -5.377923 
-1.150953 0.947162 0.950650 56.026165 -4.868802 84.450950 -1.773328 -6.090636 -18.301616 -5.518645 1.618604 26.499204 5.321972 13.368103 -9.664672 0.000000 -0.000000 0.000000 -2.029805 0.825920 5.016393 4.236622 7.899838 52.457029 9.410564 -2.077302 3.554699 0.000000 -0.000000 0.000000 -1.314870 4.702186 19.815820 1.309028 -3.601260 0.321080 0.158030 -1.587305 4.198376 -4.964653 15.666213 -5.602437 -7.316396 18.130178 7.531736 -22.140881 -1.080388 -0.287263 -56.456370 -4.775056 9.567392 3.239978 -22.570603 12.078888 6.198068 -8.076906 -4.103045 22.548397 3.735900 -2.667380 50.744627 6.578760 16.395300 -11.443690 30.024450 -1.130438 3.266242 7.427536 -4.199156 
-1.103791 0.927337 0.949817 55.808853 -4.997758 83.085365 -3.231560 -4.610055 -14.408295 -5.812576 0.835998 28.448810 6.281746 14.570884 -13.622700 0.000000 -0.000000 0.000000 -1.724369 2.045290 1.308259 5.515253 7.209242 60.576015 7.593624 -4.740002 -0.183288 0.000000 -0.000000 0.000000 -1.688937 3.555072 19.635433 1.303481 -2.667901 0.988407 -0.410350 -1.347855 4.787788 -5.207872 16.246646 -5.354084 -8.492269 18.403457 7.261141 -22.384497 -0.976428 -0.720289 -55.231350 -4.938433 9.301275 2.190473 -21.050556 11.308956 8.563416 -7.420547 -5.431659 23.909067 3.371430 -2.912187 50.200216 6.615876 16.137979 -12.937025 29.283273 -3.682272 0.919087 7.191519 -3.406355 
-1.048309 0.903160 0.958338 57.039087 -4.085692 81.899122 -4.094873 -2.505823 -8.458796 -5.931130 -2.663423 27.322852 5.861820 15.089436 -16.584031 0.000000 -0.000000 0.000000 -0.818416 1.982096 -3.721029 2.616584 3.402697 64.060939 5.647864 -7.437387 -7.616825 0.000000 -0.000000 0.000000 -0.546755 0.843135 20.312452 0.886860 -1.919286 -0.219727 -1.051406 -1.303870 5.324563 -5.007408 16.750404 -4.073210 -9.339566 18.488342 8.004036 -23.010753 0.362438 -0.949207 -55.327894 -4.895521 8.115251 3.143894 -20.709920 9.792051 11.058879 -6.144813 -6.603305 24.391333 2.181681 -3.113636 50.676631 5.365872 15.705478 -13.190607 29.159109 -3.666935 -2.264264 6.592942 -3.429532 
-1.016519 0.887909 0.965261 58.490379 -3.466092 81.403178 -4.296483 -1.903611 -4.565546 -5.680542 -4.644522 25.328452 5.393578 15.197427 -17.285420 0.000000 -0.000000 0.000000 -0.268393 2.103976 -6.115022 1.472560 1.161158 62.658922 5.180975 -9.341156 -11.144711 0.000000 -0.000000 0.000000 0.087866 -0.565887 20.020936 0.899140 -1.774986 -0.190734 -1.174200 -2.005174 5.757790 -5.091381 17.143752 -4.087611 -9.609443 18.753335 8.668205 -22.719949 1.185806 -0.846485 -56.619562 -5.883628 7.781605 4.369997 -19.717081 8.427360 10.118246 -6.219022 -8.045233 24.048354 1.494392 -3.070254 51.292886 5.085238 15.559941 -13.636873 28.459425 -3.649146 0.088359 6.660488 -4.765412 
-0.975158 0.867476 0.974989 60.432888 -2.719052 80.997402 -4.133324 -0.320596 0.715728 -5.006401 -7.437403 21.687763 4.073648 14.493211 -17.739523 0.000000 -0.000000 0.000000 0.308098 2.010778 -9.156744 -0.858985 -2.101046 57.851663 5.250095 -12.018349 -15.401560 0.000000 -0.000000 0.000000 0.424770 -2.169000 19.550611 0.849540 -1.626300 -0.161972 -0.764607 -2.419958 5.837614 -4.765981 17.086532 -3.427640 -9.656649 18.884851 8.821836 -22.748378 1.629674 0.000118 -58.438424 -6.598923 7.414755 6.324537 -19.922487 6.695554 10.853858 -5.411423 -9.329676 24.012716 0.696074 -2.713202 50.943636 4.080170 14.869275 -12.745306 27.892773 -2.209792 1.503642 6.392278 -4.908074 
-0.935070 0.846997 0.984291 62.334566 -2.154216 81.028721 -3.484206 1.124815 5.208201 -4.349783 -9.379589 18.160837 2.034170 13.279104 -16.845614 0.000000 -0.000000 0.000000 0.782515 2.262026 -11.504728 -2.644164 -5.042884 49.993234 4.304912 -13.713152 -17.476193 0.000000 -0.000000 0.000000 0.897544 -3.730239 19.373506 0.508186 -1.459464 -0.235841 -0.350208 -2.985439 5.628785 -4.965954 17.326206 -3.262829 -9.294317 19.142635 8.780893 -22.955340 2.605543 0.335849 -60.609666 -6.750181 6.454808 8.873552 -21.631649 3.847599 11.123446 -5.499959 -6.206367 23.850379 0.281817 -2.263917 50.710420 2.648366 14.391301 -11.813975 27.501280 -0.765822 1.849087 6.406410 -4.632779 
-0.898007 0.827375 0.990301 64.606179 -1.771044 81.803586 -2.520082 2.481862 7.932412 -4.141355 -10.973689 16.029999 0.568900 11.741923 -15.629221 0.000000 -0.000000 0.000000 1.173883 2.382921 -14.013122 -2.803308 -6.363303 39.838796 4.780890 -13.860074 -17.416063 0.000000 -0.000000 0.000000 1.045909 -4.996380 19.008031 0.729460 -1.537579 -0.924237 0.052351 -3.084287 5.447480 -5.398635 17.334715 -3.928760 -9.020223 18.876343 9.285600 -22.142061 3.052641 0.333970 -61.662065 -8.064904 7.734417 7.817252 -20.835183 5.942278 10.272276 -6.416328 -8.837695 23.739777 -1.178546 -2.268107 50.556822 1.629589 14.416872 -11.448130 27.033050 1.100112 3.118616 6.114388 -4.205963 
-0.859997 0.806462 0.993606 66.229276 -1.719900 82.943194 -1.855655 3.279416 9.982046 -3.964310 -11.546436 14.708683 -0.175692 10.581195 -14.663988 0.000000 -0.000000 0.000000 1.407401 2.584290 -15.346822 -1.975484 -4.780263 27.637269 5.274478 -11.458502 -15.731700 0.000000 -0.000000 0.000000 1.543027 -5.699523 17.289296 0.717259 -1.824025 -0.466478 0.066920 -3.124810 5.083171 -5.470508 17.687731 -3.705503 -9.486840 19.286141 8.401847 -21.930896 3.886930 0.204132 -62.465272 -9.175968 8.667974 8.022209 -21.248755 7.452621 5.858301 -7.372289 -9.690587 23.833771 -2.429566 -1.843398 50.427420 1.482938 14.296663 -11.411098 25.691792 1.712395 5.161404 6.406762 -4.135643 
-0.812338 0.777379 0.992761 67.948583 -1.740141 84.424197 -0.723820 3.944109 10.584582 -4.388293 -11.691519 16.596310 -1.536454 8.870125 -13.973348 0.000000 -0.000000 0.000000 2.533607 1.871083 -16.552458 -2.655794 -1.363791 15.069764 5.103730 -9.757627 -12.831421 0.000000 -0.000000 0.000000 2.114903 -5.320290 14.955292 0.919776 -1.690424 -0.093934 0.448111 -3.864281 4.430563 -6.344240 17.306428 -3.769674 -9.299104 19.970541 8.219433 -22.148506 4.360379 0.773143 -63.707196 -10.175707 9.538018 9.211212 -22.949264 8.919251 4.722082 -7.574211 -10.763841 23.399654 -3.726496 -0.601081 50.030934 1.062371 13.660499 -11.226412 25.181445 2.473953 6.275601 6.585295 -5.617962 
